# Blender v2.76 (sub 0) OBJ File: 'big_room.blend'
# www.blender.org
g Cube.000
v -14.999992 14.999996 0.009200
v -15.000000 -14.999989 0.009200
v 14.999992 -14.999989 0.009200
v 14.999992 14.999989 0.009200
v 14.999992 0.000000 0.009200
v -0.000004 -14.999989 0.009200
v 0.000000 0.000004 0.009200
v -14.999996 0.000004 0.009200
v 0.000000 14.999992 0.009200
vt -1.500069 2.500070
vt -1.500069 0.500000
vt 0.500000 0.500000
vt 2.500070 2.500069
vt 0.500000 2.500069
vt 2.500070 0.500000
vt 2.500070 -1.500070
vt 0.500000 -1.500070
vt -1.500070 -1.500070
vn 0.000000 0.000000 1.000000
s 1
f 1/1/1 8/2/1 7/3/1
f 4/4/1 9/5/1 5/6/1
f 5/6/1 7/3/1 3/7/1
f 5/6/1 9/5/1 7/3/1
f 9/5/1 1/1/1 7/3/1
f 7/3/1 6/8/1 3/7/1
f 7/3/1 8/2/1 6/8/1
f 8/2/1 2/9/1 6/8/1
