# Blender v2.76 (sub 0) OBJ File: 'big_room.blend'
# www.blender.org
g Cube.003_Cube.004
v 15.000008 14.999996 0.009200
v 15.000000 -14.999989 0.009200
v 15.000008 14.999989 4.014987
v 15.000000 -14.999989 4.014987
v 15.000008 14.999992 2.012094
v 15.000004 0.000000 4.014987
v 15.000000 -14.999989 2.012094
v 15.000004 0.000000 2.012094
v 15.000004 0.000004 0.009200
v 15.000008 14.999990 3.013540
v 15.000002 -7.499994 4.014987
v 15.000000 -14.999989 3.013540
v 15.000006 7.499994 3.013540
v 15.000002 -7.499993 0.009200
v 15.000008 14.999994 1.010647
v 15.000006 7.499994 4.014987
v 15.000000 -14.999989 1.010647
v 15.000002 -7.499994 1.010647
v 15.000006 7.500000 0.009200
v 15.000004 0.000000 3.013540
v 15.000002 -7.499994 3.013540
v 15.000002 -7.499994 2.012094
v 15.000006 7.499996 2.012094
v 15.000004 0.000002 1.010647
v 15.000006 7.499998 1.010647
vt -2.252048 -0.751976
vt -0.752008 -0.251987
vt -0.752023 -0.751981
vt -2.251987 1.247995
vt -0.751963 1.247992
vt -2.252003 0.748003
vt 0.748061 1.247988
vt 2.248085 1.247984
vt 0.748046 0.747995
vt -0.751978 0.747999
vt -2.252017 0.248010
vt -0.751993 0.248006
vt -2.252033 -0.251983
vt 0.748031 0.248002
vt 2.248070 0.747990
vt 2.248055 0.247997
vt 0.748016 -0.251992
vt 0.748001 -0.751987
vt 2.248040 -0.251998
vt 2.248025 -0.751992
vt 3.748079 0.247992
vt 3.748065 -0.252002
vt 3.748049 -0.751997
vt 3.748109 1.247980
vt 3.748095 0.747985
vn -1.000000 0.000000 0.000000
s 1
f 2/1/1 18/2/1 14/3/1
f 4/4/1 11/5/1 12/6/1
f 6/7/1 16/8/1 20/9/1
f 6/7/1 20/9/1 21/10/1
f 7/11/1 22/12/1 17/13/1
f 8/14/1 13/15/1 23/16/1
f 8/14/1 23/16/1 24/17/1
f 9/18/1 25/19/1 19/20/1
f 25/19/1 5/21/1 15/22/1
f 25/19/1 15/22/1 19/20/1
f 19/20/1 15/22/1 1/23/1
f 23/16/1 5/21/1 25/19/1
f 23/16/1 25/19/1 24/17/1
f 24/17/1 25/19/1 9/18/1
f 13/15/1 3/24/1 10/25/1
f 13/15/1 10/25/1 23/16/1
f 23/16/1 10/25/1 5/21/1
f 22/12/1 8/14/1 18/2/1
f 22/12/1 18/2/1 17/13/1
f 17/13/1 18/2/1 2/1/1
f 20/9/1 8/14/1 22/12/1
f 20/9/1 22/12/1 21/10/1
f 21/10/1 22/12/1 7/11/1
f 16/8/1 3/24/1 13/15/1
f 16/8/1 13/15/1 20/9/1
f 20/9/1 13/15/1 8/14/1
f 11/5/1 6/7/1 21/10/1
f 11/5/1 21/10/1 12/6/1
f 12/6/1 21/10/1 7/11/1
f 18/2/1 8/14/1 24/17/1
f 18/2/1 24/17/1 14/3/1
f 14/3/1 24/17/1 9/18/1
